<svg width="24" height="25" viewBox="0 0 24 25" fill="none" xmlns="http://www.w3.org/2000/svg">
<path d="M2.00418 6.39378C2.03289 6.13787 2.20218 5.95462 2.26132 5.89058C2.47761 5.65634 2.7421 5.5758 2.83195 5.54969C2.92274 5.52321 2.97374 5.51878 3.49416 5.49772C4.03969 5.47568 4.05437 5.47765 4.17747 5.46853C4.48842 5.44538 4.71859 5.40844 4.93127 5.37432C5.14169 5.34058 5.42687 5.29415 5.78721 5.20228C6.05357 5.13442 6.24062 5.07149 6.61498 4.94575C6.9019 4.84933 7.10363 4.77519 7.49548 4.63085C7.99976 4.44502 8.25182 4.35216 8.41831 4.28024C8.76157 4.13184 9.00229 4.00364 9.37278 3.80623C9.75369 3.6034 9.97492 3.48554 10.2745 3.2965C10.4968 3.15635 10.7112 3.00906 11.0917 2.78998C11.3597 2.63567 11.4465 2.59749 11.5531 2.56596C11.6905 2.52532 11.9837 2.45956 12.3315 2.53345C12.529 2.57544 12.6621 2.64503 12.8211 2.72828C13.0459 2.84589 13.1146 2.92113 13.4076 3.12273C13.6357 3.27963 13.8134 3.38505 13.9624 3.47335C14.2547 3.64662 14.4772 3.7566 14.776 3.90352C15.0628 4.04453 15.3969 4.20881 15.8573 4.40019C16.0957 4.49933 16.6055 4.70462 17.2838 4.91644C17.7563 5.06398 18.2327 5.2109 18.8794 5.32555C19.2101 5.38417 19.4191 5.42112 19.7212 5.43922C20.0115 5.45647 20.1874 5.4444 20.6124 5.47814C21.0116 5.50991 21.1135 5.54119 21.1583 5.5561C21.2717 5.59366 21.5671 5.69563 21.7677 5.96188C21.9068 6.14649 21.9328 6.32062 21.9755 6.60474C22.0063 6.80966 22.001 6.92813 21.9966 7.30596C21.99 7.89328 22.0029 7.59574 21.9932 8.2312C21.9861 8.69229 21.9782 8.91741 21.9721 9.19549C21.9691 9.32615 21.9639 9.58994 21.965 10.6499C21.9666 12.2538 21.9675 13.0558 21.9685 13.0881C21.9722 13.2043 21.9856 13.5908 21.9543 14.0653C21.9364 14.3384 21.9089 14.5611 21.898 14.6464C21.8714 14.8531 21.8444 15.0076 21.8275 15.1042C21.793 15.3003 21.7758 15.3983 21.7447 15.5116C21.7334 15.5528 21.7069 15.6453 21.5968 15.9255C21.5112 16.1431 21.4606 16.2717 21.3802 16.4466C21.3606 16.489 21.2404 16.7487 21.0844 17.0196C21.0228 17.1264 20.7499 17.5921 20.2602 18.1559C19.7905 18.6967 19.3629 19.0494 19.0979 19.2663C18.6076 19.6675 18.2 19.9283 17.8932 20.1234C17.2276 20.5464 16.6939 20.8093 16.5829 20.8637C16.0513 21.1235 15.6409 21.2774 15.0824 21.4871C14.4649 21.7187 14.5041 21.6776 13.7932 21.9351C12.5746 22.3763 12.4724 22.498 12.0602 22.5C11.9068 22.5007 11.8088 22.4846 10.7465 22.1299C9.77732 21.8064 9.29268 21.6446 8.89027 21.4871C8.36344 21.2809 7.84341 21.0774 7.182 20.7404C6.78828 20.5398 6.14662 20.2093 5.39269 19.6626C4.9039 19.308 4.35224 18.903 3.776 18.2341C3.27761 17.6558 2.98068 17.1355 2.83902 16.8672C2.76279 16.723 2.53409 16.278 2.33889 15.6628C2.1429 15.0455 2.07801 14.5637 2.06413 14.4551C2.01566 14.0754 2.0194 13.832 2.0218 13.2279C2.02407 12.6824 2.02114 12.137 2.0218 11.5915C2.02327 10.2838 1.99524 9.77061 2.00071 8.82541C2.00258 8.5051 2.00245 8.18478 2.00418 7.86446C2.00512 7.70362 2.00605 7.57296 2.00418 7.38392C2.00258 7.2099 2.00044 7.18133 2.00071 7.03983C2.00098 6.88897 2.00351 6.84402 2.00418 6.6503C2.00498 6.40141 2.00098 6.42149 2.00418 6.39378Z" fill="#1E89E3" stroke="#1E89E3" stroke-width="1.5" stroke-miterlimit="10"/>
<path d="M3.64492 14.462C3.06052 12.8285 7.21024 7.89406 12.1475 7.96474C17.0948 8.03554 21.0972 13.1065 20.4983 14.576C20.4228 14.7613 20.2564 14.9581 19.9175 15.3493C19.6521 15.6557 19.0701 16.2816 17.8982 17.0457C16.275 18.104 14.8728 18.5457 13.9496 18.8289C13.1475 19.0751 12.6492 19.1627 12.0899 19.146C11.5677 19.1304 11.2022 19.0302 10.4772 18.8316C10.2119 18.7589 9.3652 18.5202 8.25664 18.0337C7.66492 17.774 7.13764 17.5425 6.4726 17.1218C5.63332 16.5907 5.07087 16.0721 4.86015 15.8711C4.26339 15.3017 3.7804 14.841 3.64492 14.462Z" fill="white" stroke="white" stroke-width="1.5" stroke-miterlimit="10"/>
<path d="M5.95055 10.2299C5.27471 10.1342 4.40987 7.19603 5.49551 6.32963C6.71387 5.35739 9.76307 7.49315 9.60659 8.16875C9.55283 8.40107 9.13067 8.41511 7.69271 9.23771C7.52375 9.33431 7.39127 9.41147 7.39127 9.41147C6.17279 10.1216 6.10103 10.2512 5.95055 10.2299Z" fill="black" stroke="black" stroke-width="1.5" stroke-miterlimit="10"/>
<path d="M14.3226 8.18791C14.1622 7.36891 17.1736 5.26543 18.5113 6.23371C19.738 7.12171 18.9055 10.3201 18.2472 10.4217C18.1149 10.4421 18.0477 10.3291 17.4878 9.93343C17.4878 9.93343 17.1613 9.70279 16.3237 9.19855C14.9774 8.38795 14.3842 8.50279 14.3226 8.18791Z" fill="black" stroke="black" stroke-width="1.5" stroke-miterlimit="10"/>
<path d="M10.6404 16.3031C10.8697 15.706 13.2501 15.7606 13.4583 16.3789C13.5883 16.7651 12.9492 17.6028 12.0684 17.6118C11.1318 17.6214 10.4926 16.6879 10.6404 16.3031Z" fill="black" stroke="black" stroke-width="1.5" stroke-miterlimit="10"/>
<path d="M10.8384 12.31C10.0977 11.437 5.72383 12.9454 5.66467 14.8383C5.63563 15.7668 6.64496 16.7767 7.6166 16.8723C9.6818 17.0758 11.5486 13.1473 10.8384 12.31Z" fill="black" stroke="black" stroke-width="1.5" stroke-miterlimit="10"/>
<path d="M13.1772 12.3486C14.044 11.4145 18.4201 13.0739 18.4432 14.917C18.456 15.948 17.1071 17.0689 15.8957 17.0478C13.6904 17.0092 12.3935 13.1932 13.1772 12.3486Z" fill="black" stroke="black" stroke-width="1.5" stroke-miterlimit="10"/>
</svg>
